<svg width="17" height="12" viewBox="0 0 17 12" fill="none" xmlns="http://www.w3.org/2000/svg">
<path fill-rule="evenodd" clip-rule="evenodd" d="M16.0527 0.666687H15.1053C14.5821 0.666687 14.158 1.1144 14.158 1.66669V10.3334C14.158 10.8856 14.5821 11.3334 15.1053 11.3334H16.0527C16.5759 11.3334 17.0001 10.8856 17.0001 10.3334V1.66669C17.0001 1.1144 16.5759 0.666687 16.0527 0.666687ZM10.6843 3.00002H11.6317C12.1549 3.00002 12.579 3.44774 12.579 4.00002V10.3334C12.579 10.8856 12.1549 11.3334 11.6317 11.3334H10.6843C10.1611 11.3334 9.73694 10.8856 9.73694 10.3334V4.00002C9.73694 3.44774 10.1611 3.00002 10.6843 3.00002ZM7.21059 5.33335H6.26322C5.74001 5.33335 5.31586 5.78107 5.31586 6.33335V10.3334C5.31586 10.8856 5.74001 11.3334 6.26322 11.3334H7.21059C7.73381 11.3334 8.15796 10.8856 8.15796 10.3334V6.33335C8.15796 5.78107 7.73381 5.33335 7.21059 5.33335ZM2.78954 7.33335H1.84217C1.31896 7.33335 0.894806 7.78107 0.894806 8.33335V10.3334C0.894806 10.8856 1.31896 11.3334 1.84217 11.3334H2.78954C3.31276 11.3334 3.73691 10.8856 3.73691 10.3334V8.33335C3.73691 7.78107 3.31276 7.33335 2.78954 7.33335Z" fill="white"/>
</svg>
