<svg width="16" height="12" viewBox="0 0 16 12" fill="none" xmlns="http://www.w3.org/2000/svg">
<path fill-rule="evenodd" clip-rule="evenodd" d="M7.99728 2.60802C10.0965 2.60811 12.1155 3.45955 13.637 4.98635C13.7515 5.10422 13.9347 5.10274 14.0475 4.98301L15.1427 3.81635C15.1998 3.75563 15.2316 3.67337 15.2312 3.58779C15.2307 3.50221 15.1979 3.42036 15.1401 3.36035C11.1469 -0.679198 4.84706 -0.679198 0.853809 3.36035C0.795964 3.42032 0.763144 3.50214 0.76261 3.58772C0.762077 3.67331 0.793875 3.75558 0.850967 3.81635L1.94644 4.98301C2.0592 5.10292 2.24247 5.1044 2.35697 4.98635C3.87858 3.45945 5.89781 2.60801 7.99728 2.60802ZM7.99728 6.40368C9.15069 6.40361 10.2629 6.85614 11.1179 7.67335C11.2336 7.78933 11.4157 7.78681 11.5284 7.66768L12.6223 6.50101C12.6799 6.43982 12.7119 6.3568 12.7111 6.27054C12.7102 6.18427 12.6767 6.10196 12.6179 6.04202C10.0144 3.48563 5.98241 3.48563 3.37886 6.04202C3.32004 6.10196 3.28649 6.18431 3.28572 6.27061C3.28495 6.3569 3.31702 6.43991 3.37475 6.50101L4.46833 7.66768C4.58106 7.78681 4.76322 7.78933 4.87886 7.67335C5.73326 6.85668 6.84463 6.40419 7.99728 6.40368ZM10.1885 8.9575C10.1902 9.04401 10.158 9.12741 10.0995 9.18802L8.20727 11.2037C8.15181 11.2629 8.07618 11.2963 7.99727 11.2963C7.91837 11.2963 7.84274 11.2629 7.78727 11.2037L5.89474 9.18802C5.83628 9.12736 5.80412 9.04394 5.80585 8.95743C5.80759 8.87092 5.84306 8.789 5.9039 8.73102C7.11234 7.65213 8.88221 7.65213 10.0906 8.73102C10.1514 8.78905 10.1869 8.87099 10.1885 8.9575Z" fill="white"/>
</svg>
